<svg width="96" height="32" viewBox="0 0 96 32" fill="none" xmlns="http://www.w3.org/2000/svg">
<path d="M10.0007 14.3924C9.9127 14.0888 9.59557 13.9131 9.2927 14.0013C8.98984 14.0896 8.81462 14.4075 8.90263 14.7112C8.99063 15.0149 9.30777 15.1906 9.61063 15.1023C9.91349 15.0141 10.0887 14.6961 10.0007 14.3924Z" fill="white"/>
<path d="M10.2376 20.6526C10.5404 20.5644 10.7157 20.2464 10.6277 19.9427C10.5397 19.6391 10.2225 19.4634 9.91966 19.5516C9.61679 19.6399 9.44158 19.9578 9.52958 20.2615C9.61759 20.5652 9.93472 20.7409 10.2376 20.6526Z" fill="white"/>
<path d="M5.28977 10.4325C4.98691 10.5207 4.81169 10.8387 4.8997 11.1424C4.9877 11.4461 5.30484 11.6217 5.6077 11.5335C5.91056 11.4453 6.08578 11.1273 5.99777 10.8236C5.90977 10.5199 5.59264 10.3442 5.28977 10.4325Z" fill="white"/>
<path d="M5.39817 18.4369C5.09531 18.5251 4.92009 18.8431 5.0081 19.1468C5.0961 19.4504 5.41324 19.6261 5.7161 19.5379C6.01896 19.4497 6.19418 19.1317 6.10617 18.828C6.01817 18.5243 5.70103 18.3486 5.39817 18.4369Z" fill="white"/>
<path d="M3.19895 13.7557C2.89609 13.844 2.72087 14.1619 2.80888 14.4656C2.89688 14.7693 3.21402 14.945 3.51688 14.8567C3.81974 14.7685 3.99496 14.4505 3.90695 14.1468C3.81895 13.8432 3.50182 13.6675 3.19895 13.7557Z" fill="white"/>
<path d="M22.6846 7.896H27.245L30.9602 13.9409L34.6754 7.896H39.2358V23.5099H34.9426V14.5427L30.9602 20.6544H30.8714L26.912 14.5872V23.5091H22.6854V7.896H22.6846Z" fill="white"/>
<path d="M42.4176 7.896H47.2452L50.782 17.7774L54.3188 7.896H59.0568L52.7387 23.6212H48.7341L42.416 7.896H42.4176Z" fill="white"/>
<path d="M60.7021 15.7475V15.7029C60.7021 11.1526 64.2612 7.58398 69.0888 7.58398C71.8248 7.58398 73.7601 8.43142 75.4069 9.85917L72.8706 12.915C71.7582 11.9785 70.6459 11.4427 69.111 11.4427C66.8641 11.4427 65.1293 13.3387 65.1293 15.7252V15.7697C65.1293 18.2906 66.887 20.0967 69.3559 20.0967C70.4017 20.0967 71.2024 19.8733 71.8478 19.4496V17.5536H68.778V14.3865H75.9412V21.4124C74.2953 22.7733 72.004 23.8211 69.1783 23.8211C64.3286 23.8211 60.7029 20.4751 60.7029 15.7467L60.7021 15.7475Z" fill="white"/>
<path d="M92.6546 6.72422L93.7877 7.51181L76.9958 31.8003L75.8627 31.0127C74.5928 30.13 74.2772 28.3804 75.1571 27.1077L88.76 7.43177C89.6404 6.15841 91.3853 5.84197 92.6546 6.72422Z" fill="white"/>
<path d="M75.7054 0.867845L76.7788 0.000285865L93.5193 20.825C94.489 22.0313 94.2991 23.7991 93.0967 24.7709L92.0232 25.6385L75.2827 4.81375C74.313 3.60744 74.5029 1.83967 75.7054 0.867845Z" fill="white"/>
<path d="M18.4562 14.1558C18.4491 13.6852 18.4253 13.2193 18.3881 12.7575C18.369 12.5269 18.3468 12.2964 18.3215 12.0674C18.2834 11.724 18.2382 11.383 18.1875 11.0435C18.1724 10.945 18.1573 10.8472 18.1415 10.7494C18.0313 10.0649 17.8989 9.39319 17.7324 8.74052C17.711 8.65785 17.6896 8.57517 17.6674 8.49329C17.623 8.32873 17.5762 8.16577 17.527 8.00439C17.5025 7.9233 17.4771 7.84301 17.4517 7.76351C17.374 7.52344 17.2908 7.28654 17.202 7.05361C17.1695 6.96935 17.133 6.88746 17.0941 6.80717C17.0323 6.6768 16.9657 6.54961 16.9015 6.42162C16.8888 6.39538 16.8737 6.37233 16.8579 6.35166C16.8555 6.34848 16.8531 6.34609 16.8515 6.34291C16.823 6.30794 16.7897 6.2817 16.7524 6.26501C16.7429 6.26103 16.7334 6.25785 16.7239 6.25467C16.7017 6.24831 16.6779 6.24434 16.6525 6.24434C16.6343 6.24434 16.6161 6.24593 16.597 6.2499C16.578 6.25388 16.5582 6.25865 16.5376 6.2666C16.3671 6.32781 16.1967 6.38425 16.0262 6.44308C15.9691 6.46295 15.912 6.48203 15.8557 6.5027C15.7994 6.52337 15.7424 6.54325 15.6853 6.56471C15.5156 6.62831 15.3459 6.69747 15.1795 6.77776C13.7262 7.47653 12.326 8.33668 10.9901 9.38603C10.6143 9.68097 10.2433 9.9918 9.87777 10.3177L5.6694 6.6458C4.73069 5.82698 3.26156 6.25308 2.90479 7.44871L0.0719895 16.931C-0.120669 17.5765 0.0807107 18.2761 0.588125 18.7189L8.03681 25.2185C8.43719 25.5683 8.93429 25.6899 9.40048 25.6232L8.30161 21.8177L6.23866 19.7937C6.12845 19.8875 5.99843 19.9606 5.85096 20.0036C5.29281 20.1657 4.7069 19.8422 4.54516 19.2817C4.38342 18.7221 4.70611 18.1346 5.26506 17.9724C5.82321 17.8103 6.40912 18.1338 6.57085 18.6943C6.64062 18.9367 6.62001 19.1848 6.52804 19.401L8.02967 20.874L6.7651 16.4938L3.7999 16.4238L3.70159 16.3579L3.41379 15.3618C2.9365 15.3864 2.48617 15.0812 2.34742 14.601C2.18569 14.0413 2.50837 13.4539 3.06732 13.2917C3.62547 13.1295 4.21138 13.4531 4.37312 14.0135C4.51186 14.4937 4.29383 14.9929 3.8776 15.2282L4.08532 15.9477L6.62556 16.0073L5.47991 12.0404C5.01214 12.0531 4.57529 11.7503 4.43892 11.2788C4.27718 10.7192 4.59987 10.1317 5.15882 9.96954C5.71697 9.80736 6.30288 10.1309 6.46461 10.6914C6.60574 11.1795 6.3782 11.689 5.94689 11.9188L7.59678 17.6314L9.68828 16.2354L9.50751 15.609C9.03023 15.6337 8.5799 15.3284 8.44115 14.8482C8.27941 14.2886 8.6021 13.7011 9.16105 13.5389C9.7192 13.3767 10.3051 13.7003 10.4668 14.2607C10.6056 14.7409 10.3876 15.2401 9.97132 15.4755L10.2322 16.3785L10.1838 16.4866L7.73791 18.1187L8.9557 22.3352L9.55826 21.0219C9.32833 20.8907 9.14677 20.6729 9.06749 20.3987C8.90575 19.839 9.22844 19.2515 9.78738 19.0894C10.3455 18.9272 10.9314 19.2507 11.0932 19.8112C11.2549 20.3708 10.9322 20.9583 10.3733 21.1205C10.2575 21.1539 10.1402 21.1658 10.026 21.1594L9.16025 23.0459L9.49324 24.1986L9.8627 25.4785L9.86588 25.4904C12.4624 25.6939 14.7141 24.3965 16.5955 21.6324C16.6018 21.6229 16.6081 21.6142 16.6145 21.6046C16.7532 21.3995 16.8817 21.1912 17.0014 20.9806C17.0735 20.8526 17.1433 20.7238 17.2091 20.5942C17.2836 20.4464 17.355 20.2977 17.4216 20.1475C17.7807 19.339 18.0257 18.4939 18.1867 17.6266C18.2446 17.3126 18.2921 16.9962 18.3302 16.6774C18.4317 15.8205 18.4697 14.9826 18.457 14.159L18.4562 14.1558ZM15.3761 9.85665C14.8742 11.3695 14.3018 12.8505 13.7016 14.3188C13.6802 14.0103 13.5748 13.713 13.3972 13.4578C14.0227 12.2423 14.6728 11.0372 15.3761 9.85745V9.85665ZM11.4611 11.6978C11.4888 11.2478 11.5403 10.7963 11.6545 10.34C11.8844 10.8631 12.0216 11.3933 12.1373 11.9259C12.1675 12.0698 12.1944 12.2145 12.219 12.3592L11.4611 11.6978ZM14.0346 20.9798C13.4963 21.4639 12.9405 21.925 12.3625 22.3559C11.9732 22.6492 11.5728 22.9282 11.1653 23.1969L11.5665 21.8534C11.6553 21.7851 11.7441 21.7151 11.8337 21.6483C12.4093 21.2135 13.0063 20.8089 13.6215 20.4273C14.2368 20.0465 14.871 19.6903 15.5576 19.405C15.0907 19.9853 14.5721 20.4949 14.0338 20.9798H14.0346ZM15.7463 15.4103C15.3293 15.8372 14.8932 16.2426 14.4342 16.6178C13.9767 16.9962 13.4971 17.3468 12.9984 17.6751C12.923 17.7244 12.8477 17.7729 12.7708 17.8206L13.1419 16.5781C13.3797 16.3563 13.6231 16.1416 13.8737 15.9349C14.3303 15.5557 14.81 15.2052 15.3087 14.8768C15.8074 14.5493 16.3267 14.2456 16.9015 14.0103C16.5606 14.5302 16.1634 14.9826 15.7463 15.4103Z" fill="white"/>
<path d="M68.5117 30.5661L69.0797 30.4762C69.1301 30.5961 69.1927 30.6812 69.2676 30.7316C69.3425 30.7806 69.4447 30.8051 69.5741 30.8051C69.7075 30.8051 69.8145 30.7752 69.8948 30.7152C69.9507 30.6744 69.9786 30.6247 69.9786 30.5661C69.9786 30.5266 69.9643 30.4912 69.9357 30.4599C69.9057 30.4299 69.8247 30.3931 69.6926 30.3495C69.3384 30.2324 69.1192 30.1398 69.0347 30.0717C68.9026 29.9655 68.8366 29.8265 68.8366 29.6549C68.8366 29.4833 68.9006 29.3355 69.0286 29.2116C69.207 29.0386 69.4719 28.9521 69.8233 28.9521C70.1025 28.9521 70.3136 29.0032 70.4566 29.1054C70.5996 29.2075 70.6902 29.3458 70.7283 29.5201L70.187 29.6141C70.1584 29.5351 70.1121 29.4758 70.048 29.4363C69.9609 29.3832 69.856 29.3567 69.7334 29.3567C69.6108 29.3567 69.5223 29.3771 69.4678 29.4179C69.4147 29.4588 69.3882 29.5058 69.3882 29.5589C69.3882 29.6134 69.4154 29.6583 69.4699 29.6937C69.5039 29.7155 69.6136 29.7537 69.7988 29.8082C70.0848 29.8912 70.2762 29.973 70.3729 30.0533C70.5091 30.1664 70.5772 30.3026 70.5772 30.4619C70.5772 30.6676 70.4907 30.846 70.3177 30.9972C70.1447 31.1483 69.9009 31.2239 69.5863 31.2239C69.2731 31.2239 69.0306 31.1667 68.859 31.0523C68.6888 30.9366 68.573 30.7745 68.5117 30.5661Z" fill="white"/>
<path d="M66.1816 30.5661L66.7496 30.4762C66.8 30.5961 66.8626 30.6812 66.9375 30.7316C67.0125 30.7806 67.1146 30.8051 67.244 30.8051C67.3775 30.8051 67.4844 30.7752 67.5647 30.7152C67.6206 30.6744 67.6485 30.6247 67.6485 30.5661C67.6485 30.5266 67.6342 30.4912 67.6056 30.4599C67.5756 30.4299 67.4946 30.3931 67.3625 30.3495C67.0084 30.2324 66.7891 30.1398 66.7046 30.0717C66.5725 29.9655 66.5065 29.8265 66.5065 29.6549C66.5065 29.4833 66.5705 29.3355 66.6985 29.2116C66.8769 29.0386 67.1418 28.9521 67.4932 28.9521C67.7724 28.9521 67.9835 29.0032 68.1266 29.1054C68.2696 29.2075 68.3601 29.3458 68.3983 29.5201L67.8569 29.6141C67.8283 29.5351 67.782 29.4758 67.718 29.4363C67.6308 29.3832 67.5259 29.3567 67.4033 29.3567C67.2808 29.3567 67.1922 29.3771 67.1378 29.4179C67.0846 29.4588 67.0581 29.5058 67.0581 29.5589C67.0581 29.6134 67.0853 29.6583 67.1398 29.6937C67.1738 29.7155 67.2835 29.7537 67.4687 29.8082C67.7547 29.8912 67.9461 29.973 68.0428 30.0533C68.179 30.1664 68.2471 30.3026 68.2471 30.4619C68.2471 30.6676 68.1606 30.846 67.9876 30.9972C67.8147 31.1483 67.5709 31.2239 67.2562 31.2239C66.943 31.2239 66.7006 31.1667 66.5289 31.0523C66.3587 30.9366 66.2429 30.7745 66.1816 30.5661Z" fill="white"/>
<path d="M66.0427 30.2699H64.5718C64.5704 30.293 64.5697 30.3107 64.5697 30.323C64.5697 30.4674 64.6106 30.5838 64.6923 30.6723C64.7754 30.7609 64.8762 30.8051 64.9947 30.8051C65.1894 30.8051 65.3413 30.7043 65.4502 30.5028L65.9753 30.5906C65.8731 30.8017 65.7363 30.9604 65.5647 31.0666C65.3944 31.1715 65.203 31.2239 64.9906 31.2239C64.6991 31.2239 64.4621 31.132 64.2796 30.9481C64.0971 30.7629 64.0059 30.5184 64.0059 30.2147C64.0059 29.9178 64.0883 29.6536 64.2531 29.422C64.4778 29.1088 64.7985 28.9521 65.2153 28.9521C65.4809 28.9521 65.692 29.0345 65.8486 29.1993C66.0053 29.3628 66.0836 29.5923 66.0836 29.8878C66.0836 30.0295 66.0699 30.1568 66.0427 30.2699ZM65.5483 29.9123C65.5497 29.8865 65.5503 29.8667 65.5503 29.8531C65.5503 29.6924 65.5143 29.5719 65.4421 29.4915C65.3699 29.4111 65.2732 29.371 65.152 29.371C65.0308 29.371 64.9218 29.4166 64.8251 29.5078C64.7298 29.5991 64.6651 29.7339 64.631 29.9123H65.5483Z" fill="white"/>
<path d="M62.7607 31.1727L63.3879 28.1777H63.9722L63.3471 31.1727H62.7607Z" fill="white"/>
<path d="M59.477 29.0032H60.0286L59.9734 29.2668C60.1886 29.057 60.4147 28.9521 60.6517 28.9521C60.8151 28.9521 60.9411 28.9862 61.0296 29.0543C61.1182 29.1224 61.1747 29.2164 61.1992 29.3362C61.2741 29.2273 61.3817 29.136 61.522 29.0625C61.6623 28.9889 61.808 28.9521 61.9592 28.9521C62.1322 28.9521 62.267 28.9985 62.3637 29.0911C62.4604 29.1837 62.5088 29.3063 62.5088 29.4588C62.5088 29.5337 62.4897 29.6631 62.4516 29.847L62.1737 31.1729H61.5874L61.8652 29.847C61.8993 29.6808 61.9163 29.5868 61.9163 29.565C61.9163 29.5051 61.8979 29.4581 61.8611 29.4241C61.8257 29.3887 61.7719 29.371 61.6997 29.371C61.554 29.371 61.4239 29.4479 61.3095 29.6018C61.2264 29.7121 61.1556 29.9076 61.0971 30.1881L60.8907 31.1729H60.3044L60.5781 29.8613C60.6095 29.7101 60.6251 29.612 60.6251 29.5671C60.6251 29.5099 60.6054 29.4629 60.5659 29.4261C60.5277 29.3893 60.4746 29.371 60.4065 29.371C60.3425 29.371 60.2765 29.39 60.2084 29.4282C60.1403 29.4663 60.0803 29.5187 60.0286 29.5855C59.9782 29.6522 59.9346 29.738 59.8978 29.8429C59.8815 29.8919 59.8549 30.0029 59.8182 30.1759L59.6098 31.1729H59.0234L59.477 29.0032Z" fill="white"/>
<path d="M57.5394 29.6182L56.9674 29.5691C57.0327 29.3757 57.1465 29.2245 57.3085 29.1156C57.472 29.0066 57.6879 28.9521 57.9562 28.9521C58.2354 28.9521 58.4417 29.0087 58.5752 29.1217C58.7087 29.2334 58.7754 29.3703 58.7754 29.5324C58.7754 29.5977 58.7693 29.6672 58.757 29.7407C58.7461 29.8143 58.7059 30.0077 58.6365 30.3209C58.5793 30.5797 58.5507 30.7609 58.5507 30.8644C58.5507 30.957 58.567 31.0598 58.5997 31.1729H58.0297C58.0066 31.0939 57.9923 31.0122 57.9868 30.9277C57.901 31.023 57.8023 31.0966 57.6906 31.1483C57.5789 31.1987 57.4665 31.2239 57.3535 31.2239C57.1737 31.2239 57.0252 31.1654 56.9081 31.0482C56.791 30.9298 56.7324 30.7779 56.7324 30.5927C56.7324 30.3856 56.7964 30.2202 56.9245 30.0962C57.0539 29.9723 57.284 29.8974 57.615 29.8715C57.8942 29.8483 58.0808 29.8204 58.1748 29.7877C58.1993 29.706 58.2115 29.6406 58.2115 29.5916C58.2115 29.5289 58.1863 29.4765 58.1359 29.4343C58.0856 29.3921 58.0106 29.371 57.9112 29.371C57.8063 29.371 57.7233 29.3928 57.662 29.4363C57.602 29.4786 57.5612 29.5392 57.5394 29.6182ZM58.0971 30.1616C58.0617 30.1711 58.0147 30.18 57.9562 30.1881C57.662 30.2236 57.4699 30.2753 57.38 30.3434C57.316 30.3924 57.284 30.4585 57.284 30.5416C57.284 30.6097 57.3085 30.6676 57.3576 30.7152C57.4066 30.7615 57.4713 30.7847 57.5517 30.7847C57.6402 30.7847 57.7233 30.7636 57.8009 30.7214C57.8799 30.6778 57.9385 30.6226 57.9766 30.5559C58.0161 30.4878 58.0508 30.3822 58.0808 30.2392L58.0971 30.1616Z" fill="white"/>
<path d="M56.4968 30.2699H55.0259C55.0245 30.293 55.0238 30.3107 55.0238 30.323C55.0238 30.4674 55.0647 30.5838 55.1464 30.6723C55.2295 30.7609 55.3303 30.8051 55.4488 30.8051C55.6435 30.8051 55.7954 30.7043 55.9043 30.5028L56.4294 30.5906C56.3272 30.8017 56.1904 30.9604 56.0188 31.0666C55.8485 31.1715 55.6571 31.2239 55.4447 31.2239C55.1532 31.2239 54.9162 31.132 54.7337 30.9481C54.5512 30.7629 54.46 30.5184 54.46 30.2147C54.46 29.9178 54.5424 29.6536 54.7072 29.422C54.9319 29.1088 55.2526 28.9521 55.6694 28.9521C55.935 28.9521 56.1461 29.0345 56.3027 29.1993C56.4594 29.3628 56.5377 29.5923 56.5377 29.8878C56.5377 30.0295 56.524 30.1568 56.4968 30.2699ZM56.0024 29.9123C56.0038 29.8865 56.0045 29.8667 56.0045 29.8531C56.0045 29.6924 55.9684 29.5719 55.8962 29.4915C55.824 29.4111 55.7273 29.371 55.6061 29.371C55.4849 29.371 55.3759 29.4166 55.2792 29.5078C55.1839 29.5991 55.1192 29.7339 55.0851 29.9123H56.0024Z" fill="white"/>
<path d="M51.691 30.2026L52.2773 30.172C52.2855 30.3586 52.3175 30.4845 52.3733 30.5499C52.4632 30.6562 52.6294 30.7093 52.8718 30.7093C53.0734 30.7093 53.2191 30.6732 53.309 30.601C53.3989 30.5288 53.4438 30.4416 53.4438 30.3395C53.4438 30.251 53.4071 30.1761 53.3335 30.1148C53.2818 30.0698 53.1394 29.997 52.9065 29.8962C52.675 29.7954 52.5054 29.7116 52.3978 29.6449C52.2916 29.5768 52.2078 29.4889 52.1465 29.3813C52.0853 29.2737 52.0546 29.1478 52.0546 29.0034C52.0546 28.7514 52.1459 28.5424 52.3284 28.3762C52.5109 28.21 52.7751 28.127 53.121 28.127C53.4724 28.127 53.7442 28.2094 53.9362 28.3742C54.1296 28.539 54.2358 28.7582 54.2549 29.032L53.6645 29.0586C53.6495 28.9155 53.5977 28.8059 53.5092 28.7296C53.4207 28.6534 53.2899 28.6152 53.117 28.6152C52.9467 28.6152 52.8248 28.6452 52.7513 28.7051C52.6791 28.765 52.643 28.8406 52.643 28.9319C52.643 29.0177 52.6764 29.0885 52.7431 29.1444C52.8098 29.2016 52.9576 29.2799 53.1864 29.3793C53.531 29.5278 53.7503 29.6483 53.8443 29.7409C53.9845 29.8771 54.0547 30.0521 54.0547 30.266C54.0547 30.5302 53.9498 30.7563 53.7401 30.9442C53.5317 31.1308 53.2409 31.2241 52.8677 31.2241C52.6103 31.2241 52.3869 31.1812 52.1976 31.0954C52.0097 31.0082 51.8769 30.8877 51.7992 30.7338C51.7216 30.5799 51.6855 30.4028 51.691 30.2026Z" fill="white"/>
<path d="M47.8845 30.2699H46.4136C46.4122 30.293 46.4115 30.3107 46.4115 30.323C46.4115 30.4674 46.4524 30.5838 46.5341 30.6723C46.6172 30.7609 46.718 30.8051 46.8365 30.8051C47.0312 30.8051 47.1831 30.7043 47.292 30.5028L47.8171 30.5906C47.7149 30.8017 47.5781 30.9604 47.4064 31.0666C47.2362 31.1715 47.0448 31.2239 46.8324 31.2239C46.5409 31.2239 46.3039 31.132 46.1214 30.9481C45.9389 30.7629 45.8477 30.5184 45.8477 30.2147C45.8477 29.9178 45.9301 29.6536 46.0949 29.422C46.3196 29.1088 46.6403 28.9521 47.0571 28.9521C47.3227 28.9521 47.5338 29.0345 47.6904 29.1993C47.847 29.3628 47.9254 29.5923 47.9254 29.8878C47.9254 30.0295 47.9117 30.1568 47.8845 30.2699ZM47.3901 29.9123C47.3915 29.8865 47.3921 29.8667 47.3921 29.8531C47.3921 29.6924 47.3561 29.5719 47.2839 29.4915C47.2117 29.4111 47.115 29.371 46.9938 29.371C46.8725 29.371 46.7636 29.4166 46.6669 29.5078C46.5716 29.5991 46.5069 29.7339 46.4728 29.9123H47.3901Z" fill="white"/>
<path d="M44.6025 31.1727L45.2297 28.1777H45.814L45.1889 31.1727H44.6025Z" fill="white"/>
<path d="M42.0322 31.1727L42.6574 28.1777H43.2458L43.0353 29.1788C43.1429 29.0971 43.243 29.0392 43.3356 29.0051C43.4296 28.9697 43.5318 28.952 43.6421 28.952C43.8709 28.952 44.0541 29.029 44.1917 29.1829C44.3292 29.3354 44.398 29.5581 44.398 29.8509C44.398 30.0484 44.3653 30.2405 44.2999 30.4271C44.2359 30.6123 44.1494 30.7635 44.0405 30.8806C43.9329 30.9964 43.8192 31.0828 43.6993 31.1401C43.5808 31.1959 43.4562 31.2238 43.3254 31.2238C43.0149 31.2238 42.7868 31.0876 42.641 30.8152L42.5654 31.1727H42.0322ZM42.8229 30.2881C42.8229 30.4339 42.8637 30.5524 42.9454 30.6436C43.0285 30.7349 43.1259 30.7805 43.2376 30.7805C43.3356 30.7805 43.4289 30.7451 43.5175 30.6743C43.6074 30.6034 43.6816 30.4904 43.7402 30.3351C43.8001 30.1799 43.83 30.0232 43.83 29.8652C43.83 29.7113 43.7899 29.5908 43.7095 29.5036C43.6305 29.4151 43.5345 29.3708 43.4215 29.3708C43.2744 29.3708 43.1477 29.4389 43.0415 29.5751C42.8957 29.7617 42.8229 29.9994 42.8229 30.2881Z" fill="white"/>
<path d="M40.5472 29.6182L39.9752 29.5691C40.0406 29.3757 40.1543 29.2245 40.3164 29.1156C40.4798 29.0066 40.6957 28.9521 40.964 28.9521C41.2432 28.9521 41.4495 29.0087 41.583 29.1217C41.7165 29.2334 41.7832 29.3703 41.7832 29.5324C41.7832 29.5977 41.7771 29.6672 41.7648 29.7407C41.7539 29.8143 41.7138 30.0077 41.6443 30.3209C41.5871 30.5797 41.5585 30.7609 41.5585 30.8644C41.5585 30.957 41.5748 31.0598 41.6075 31.1729H41.0375C41.0144 31.0939 41.0001 31.0122 40.9946 30.9277C40.9088 31.023 40.8101 31.0966 40.6984 31.1483C40.5867 31.1987 40.4743 31.2239 40.3613 31.2239C40.1815 31.2239 40.0331 31.1654 39.9159 31.0482C39.7988 30.9298 39.7402 30.7779 39.7402 30.5927C39.7402 30.3856 39.8042 30.2202 39.9323 30.0962C40.0617 29.9723 40.2918 29.8974 40.6228 29.8715C40.902 29.8483 41.0886 29.8204 41.1826 29.7877C41.2071 29.706 41.2193 29.6406 41.2193 29.5916C41.2193 29.5289 41.1942 29.4765 41.1438 29.4343C41.0934 29.3921 41.0185 29.371 40.919 29.371C40.8142 29.371 40.7311 29.3928 40.6698 29.4363C40.6099 29.4786 40.569 29.5392 40.5472 29.6182ZM41.1049 30.1616C41.0695 30.1711 41.0225 30.18 40.964 30.1881C40.6698 30.2236 40.4777 30.2753 40.3879 30.3434C40.3238 30.3924 40.2918 30.4585 40.2918 30.5416C40.2918 30.6097 40.3164 30.6676 40.3654 30.7152C40.4144 30.7615 40.4791 30.7847 40.5595 30.7847C40.648 30.7847 40.7311 30.7636 40.8087 30.7214C40.8877 30.6778 40.9463 30.6226 40.9844 30.5559C41.0239 30.4878 41.0586 30.3822 41.0886 30.2392L41.1049 30.1616Z" fill="white"/>
<path d="M38.5508 31.1727L39.178 28.1777H39.7623L39.1371 31.1727H38.5508Z" fill="white"/>
<path d="M37.054 29.6182L36.482 29.5691C36.5474 29.3757 36.6611 29.2245 36.8232 29.1156C36.9866 29.0066 37.2025 28.9521 37.4708 28.9521C37.75 28.9521 37.9564 29.0087 38.0898 29.1217C38.2233 29.2334 38.29 29.3703 38.29 29.5324C38.29 29.5977 38.2839 29.6672 38.2717 29.7407C38.2608 29.8143 38.2206 30.0077 38.1511 30.3209C38.0939 30.5797 38.0653 30.7609 38.0653 30.8644C38.0653 30.957 38.0817 31.0598 38.1144 31.1729H37.5444C37.5212 31.0939 37.5069 31.0122 37.5015 30.9277C37.4157 31.023 37.3169 31.0966 37.2052 31.1483C37.0935 31.1987 36.9812 31.2239 36.8681 31.2239C36.6884 31.2239 36.5399 31.1654 36.4228 31.0482C36.3056 30.9298 36.2471 30.7779 36.2471 30.5927C36.2471 30.3856 36.3111 30.2202 36.4391 30.0962C36.5685 29.9723 36.7987 29.8974 37.1296 29.8715C37.4088 29.8483 37.5954 29.8204 37.6894 29.7877C37.7139 29.706 37.7262 29.6406 37.7262 29.5916C37.7262 29.5289 37.701 29.4765 37.6506 29.4343C37.6002 29.3921 37.5253 29.371 37.4259 29.371C37.321 29.371 37.2379 29.3928 37.1766 29.4363C37.1167 29.4786 37.0758 29.5392 37.054 29.6182ZM37.6118 30.1616C37.5764 30.1711 37.5294 30.18 37.4708 30.1881C37.1766 30.2236 36.9846 30.2753 36.8947 30.3434C36.8307 30.3924 36.7987 30.4585 36.7987 30.5416C36.7987 30.6097 36.8232 30.6676 36.8722 30.7152C36.9213 30.7615 36.9859 30.7847 37.0663 30.7847C37.1548 30.7847 37.2379 30.7636 37.3155 30.7214C37.3945 30.6778 37.4531 30.6226 37.4912 30.5559C37.5307 30.4878 37.5655 30.3822 37.5954 30.2392L37.6118 30.1616Z" fill="white"/>
<path d="M35.3686 30.3557L35.9386 30.4476C35.8446 30.7009 35.7057 30.8937 35.5219 31.0258C35.338 31.1579 35.1248 31.2239 34.8824 31.2239C34.6059 31.2239 34.3866 31.1415 34.2246 30.9767C34.0625 30.8119 33.9814 30.5852 33.9814 30.2964C33.9814 30.0608 34.0305 29.8381 34.1285 29.6284C34.2266 29.4186 34.3744 29.2538 34.5719 29.134C34.7694 29.0128 34.9859 28.9521 35.2215 28.9521C35.4776 28.9521 35.6819 29.0189 35.8344 29.1524C35.987 29.2858 36.0728 29.4615 36.0918 29.6794L35.5341 29.7387C35.5205 29.6175 35.483 29.5283 35.4217 29.4711C35.3618 29.4139 35.2828 29.3853 35.1848 29.3853C35.0717 29.3853 34.9662 29.4275 34.8681 29.5119C34.77 29.5964 34.6944 29.723 34.6413 29.8919C34.5896 30.0594 34.5637 30.2168 34.5637 30.3638C34.5637 30.4919 34.595 30.5906 34.6577 30.6601C34.7203 30.7295 34.7986 30.7643 34.8926 30.7643C34.9866 30.7643 35.0772 30.7302 35.1643 30.6621C35.2515 30.594 35.3196 30.4919 35.3686 30.3557Z" fill="white"/>
<path d="M31.2037 30.2026L31.79 30.172C31.7982 30.3586 31.8302 30.4845 31.886 30.5499C31.9759 30.6562 32.1421 30.7093 32.3845 30.7093C32.5861 30.7093 32.7318 30.6732 32.8217 30.601C32.9116 30.5288 32.9565 30.4416 32.9565 30.3395C32.9565 30.251 32.9198 30.1761 32.8462 30.1148C32.7945 30.0698 32.6521 29.997 32.4192 29.8962C32.1877 29.7954 32.0181 29.7116 31.9105 29.6449C31.8043 29.5768 31.7205 29.4889 31.6592 29.3813C31.598 29.2737 31.5673 29.1478 31.5673 29.0034C31.5673 28.7514 31.6586 28.5424 31.8411 28.3762C32.0236 28.21 32.2878 28.127 32.6337 28.127C32.9851 28.127 33.2569 28.2094 33.4489 28.3742C33.6423 28.539 33.7485 28.7582 33.7676 29.032L33.1772 29.0586C33.1622 28.9155 33.1104 28.8059 33.0219 28.7296C32.9334 28.6534 32.8026 28.6152 32.6297 28.6152C32.4594 28.6152 32.3375 28.6452 32.264 28.7051C32.1918 28.765 32.1557 28.8406 32.1557 28.9319C32.1557 29.0177 32.1891 29.0885 32.2558 29.1444C32.3225 29.2016 32.4703 29.2799 32.6991 29.3793C33.0437 29.5278 33.263 29.6483 33.357 29.7409C33.4972 29.8771 33.5674 30.0521 33.5674 30.266C33.5674 30.5302 33.4625 30.7563 33.2528 30.9442C33.0444 31.1308 32.7536 31.2241 32.3804 31.2241C32.123 31.2241 31.8996 31.1812 31.7103 31.0954C31.5224 31.0082 31.3896 30.8877 31.3119 30.7338C31.2343 30.5799 31.1982 30.4028 31.2037 30.2026Z" fill="white"/>
<path d="M26.2322 30.2699H24.7612C24.7599 30.293 24.7592 30.3107 24.7592 30.323C24.7592 30.4674 24.8 30.5838 24.8818 30.6723C24.9648 30.7609 25.0656 30.8051 25.1841 30.8051C25.3789 30.8051 25.5307 30.7043 25.6397 30.5028L26.1647 30.5906C26.0626 30.8017 25.9257 30.9604 25.7541 31.0666C25.5839 31.1715 25.3925 31.2239 25.18 31.2239C24.8886 31.2239 24.6516 31.132 24.4691 30.9481C24.2866 30.7629 24.1953 30.5184 24.1953 30.2147C24.1953 29.9178 24.2777 29.6536 24.4425 29.422C24.6672 29.1088 24.988 28.9521 25.4048 28.9521C25.6703 28.9521 25.8814 29.0345 26.0381 29.1993C26.1947 29.3628 26.273 29.5923 26.273 29.8878C26.273 30.0295 26.2594 30.1568 26.2322 30.2699ZM25.7378 29.9123C25.7391 29.8865 25.7398 29.8667 25.7398 29.8531C25.7398 29.6924 25.7037 29.5719 25.6315 29.4915C25.5593 29.4111 25.4626 29.371 25.3414 29.371C25.2202 29.371 25.1112 29.4166 25.0145 29.5078C24.9192 29.5991 24.8545 29.7339 24.8205 29.9123H25.7378Z" fill="white"/>
<path d="M22.9502 31.1727L23.5774 28.1777H24.1617L23.5365 31.1727H22.9502Z" fill="white"/>
<path d="M20.8332 29.0032H21.3888L21.3419 29.2259C21.4604 29.1278 21.5714 29.0577 21.6749 29.0155C21.7784 28.9733 21.8894 28.9521 22.0079 28.9521C22.2353 28.9521 22.4178 29.0305 22.5554 29.1871C22.6943 29.3437 22.7638 29.5773 22.7638 29.8878C22.7638 30.2787 22.6446 30.609 22.4063 30.8787C22.202 31.1089 21.9602 31.2239 21.681 31.2239C21.3936 31.2239 21.1764 31.1075 21.0293 30.8746L20.7943 32.0003H20.208L20.8332 29.0032ZM21.1866 30.2474C21.1866 30.4163 21.2275 30.5477 21.3092 30.6417C21.3923 30.7343 21.4896 30.7806 21.6013 30.7806C21.698 30.7806 21.7913 30.7459 21.8812 30.6764C21.9711 30.6056 22.0453 30.4891 22.1039 30.3271C22.1638 30.1636 22.1938 30.0125 22.1938 29.8735C22.1938 29.7115 22.155 29.5875 22.0773 29.5017C21.9997 29.4145 21.901 29.371 21.7811 29.371C21.6694 29.371 21.5673 29.4111 21.4747 29.4915C21.3834 29.5705 21.3126 29.6876 21.2622 29.8429C21.2118 29.9968 21.1866 30.1316 21.1866 30.2474Z" fill="white"/>
<path d="M17.1098 29.0032H17.6614L17.6062 29.2668C17.8214 29.057 18.0475 28.9521 18.2845 28.9521C18.4479 28.9521 18.5739 28.9862 18.6625 29.0543C18.751 29.1224 18.8075 29.2164 18.832 29.3362C18.9069 29.2273 19.0145 29.136 19.1548 29.0625C19.2951 28.9889 19.4408 28.9521 19.592 28.9521C19.765 28.9521 19.8998 28.9985 19.9965 29.0911C20.0932 29.1837 20.1416 29.3063 20.1416 29.4588C20.1416 29.5337 20.1225 29.6631 20.0844 29.847L19.8065 31.1729H19.2202L19.498 29.847C19.5321 29.6808 19.5491 29.5868 19.5491 29.565C19.5491 29.5051 19.5307 29.4581 19.4939 29.4241C19.4585 29.3887 19.4047 29.371 19.3326 29.371C19.1868 29.371 19.0567 29.4479 18.9423 29.6018C18.8593 29.7121 18.7884 29.9076 18.7299 30.1881L18.5235 31.1729H17.9372L18.211 29.8613C18.2423 29.7101 18.2579 29.612 18.2579 29.5671C18.2579 29.5099 18.2382 29.4629 18.1987 29.4261C18.1606 29.3893 18.1074 29.371 18.0393 29.371C17.9753 29.371 17.9093 29.39 17.8412 29.4282C17.7731 29.4663 17.7132 29.5187 17.6614 29.5855C17.611 29.6522 17.5674 29.738 17.5306 29.8429C17.5143 29.8919 17.4877 30.0029 17.451 30.1759L17.2426 31.1729H16.6562L17.1098 29.0032Z" fill="white"/>
<path d="M16.1359 28.1777H16.7222L16.6119 28.7089H16.0256L16.1359 28.1777ZM15.9643 29.0031H16.5506L16.0971 31.1727H15.5107L15.9643 29.0031Z" fill="white"/>
<path d="M12.8179 30.2026L13.4043 30.172C13.4124 30.3586 13.4444 30.4845 13.5003 30.5499C13.5902 30.6562 13.7563 30.7093 13.9988 30.7093C14.2003 30.7093 14.3461 30.6732 14.436 30.601C14.5258 30.5288 14.5708 30.4416 14.5708 30.3395C14.5708 30.251 14.534 30.1761 14.4605 30.1148C14.4087 30.0698 14.2664 29.997 14.0335 29.8962C13.802 29.7954 13.6324 29.7116 13.5248 29.6449C13.4186 29.5768 13.3348 29.4889 13.2735 29.3813C13.2122 29.2737 13.1816 29.1478 13.1816 29.0034C13.1816 28.7514 13.2728 28.5424 13.4553 28.3762C13.6378 28.21 13.9021 28.127 14.248 28.127C14.5994 28.127 14.8711 28.2094 15.0632 28.3742C15.2566 28.539 15.3628 28.7582 15.3819 29.032L14.7914 29.0586C14.7765 28.9155 14.7247 28.8059 14.6362 28.7296C14.5476 28.6534 14.4169 28.6152 14.2439 28.6152C14.0737 28.6152 13.9518 28.6452 13.8782 28.7051C13.806 28.765 13.7699 28.8406 13.7699 28.9319C13.7699 29.0177 13.8033 29.0885 13.8701 29.1444C13.9368 29.2016 14.0846 29.2799 14.3134 29.3793C14.658 29.5278 14.8772 29.6483 14.9712 29.7409C15.1115 29.8771 15.1816 30.0521 15.1816 30.266C15.1816 30.5302 15.0768 30.7563 14.867 30.9442C14.6586 31.1308 14.3679 31.2241 13.9947 31.2241C13.7373 31.2241 13.5139 31.1812 13.3246 31.0954C13.1366 31.0082 13.0038 30.8877 12.9262 30.7338C12.8486 30.5799 12.8125 30.4028 12.8179 30.2026Z" fill="white"/>
</svg>
